HIERARCHY
ROOT Hips
{
  OFFSET 5.72205e-005 65.662 3.42586
  CHANNELS 6 Xposition Yposition Zposition Zrotation Xrotation Yrotation
  JOINT Chest
  {
    OFFSET 0 8.7983 -4.7612
    CHANNELS 3 Zrotation Xrotation Yrotation
    JOINT Chest2
    {
      OFFSET 0 8.0291 0.4195
      CHANNELS 3 Zrotation Xrotation Yrotation
      JOINT Chest3
      {
        OFFSET 0 9.9351 -2.2114
        CHANNELS 3 Zrotation Xrotation Yrotation
        JOINT Neck
        {
          OFFSET 0 22.3885 -0.4656
          CHANNELS 3 Zrotation Xrotation Yrotation
          JOINT Head
          {
            OFFSET -0.0001 12.643 3.4389
            CHANNELS 3 Zrotation Xrotation Yrotation
            End Site
            {
              OFFSET 0.0001 17.6655 0.5274
            }
          }
        }
        JOINT LeftCollar
        {
          OFFSET 2.2603 21.606 7.4023
          CHANNELS 3 Zrotation Xrotation Yrotation
          JOINT LeftShoulder
          {
            OFFSET 13.5163 -1.1332 -5.0146
            CHANNELS 3 Zrotation Xrotation Yrotation
            JOINT LeftElbow
            {
              OFFSET -0.0995 -28.05 -0.2431
              CHANNELS 3 Zrotation Xrotation Yrotation
              JOINT LeftWrist
              {
                OFFSET 0.0679 -23.3996 -0.1402
                CHANNELS 3 Zrotation Xrotation Yrotation
                JOINT LeftFinger1
                {
                  OFFSET 0.7932 -9.069 2.5189
                  CHANNELS 3 Zrotation Xrotation Yrotation
                  JOINT LeftFinger11
                  {
                    OFFSET -0.8272 -3.3923 0.5977
                    CHANNELS 3 Zrotation Xrotation Yrotation
                    JOINT LeftFinger12
                    {
                      OFFSET -0.5649 -2.3158 0.4082
                      CHANNELS 3 Zrotation Xrotation Yrotation
                      End Site
                      {
                        OFFSET -0.4919 -1.6479 0.2673
                      }
                    }
                  }
                }
                JOINT LeftFinger2
                {
                  OFFSET 0.9159 -9.2044 0.2193
                  CHANNELS 3 Zrotation Xrotation Yrotation
                  JOINT LeftFinger21
                  {
                    OFFSET 0.0117 -4.1944 -0.0248
                    CHANNELS 3 Zrotation Xrotation Yrotation
                    JOINT LeftFinger22
                    {
                      OFFSET 0.0071 -2.3249 -0.0142
                      CHANNELS 3 Zrotation Xrotation Yrotation
                      End Site
                      {
                        OFFSET -0.1475 -2.0882 0.0028
                      }
                    }
                  }
                }
                JOINT LeftFinger3
                {
                  OFFSET 0.6113 -8.7231 -2.0637
                  CHANNELS 3 Zrotation Xrotation Yrotation
                  JOINT LeftFinger31
                  {
                    OFFSET -0.1927 -3.8059 -0.2383
                    CHANNELS 3 Zrotation Xrotation Yrotation
                    JOINT LeftFinger32
                    {
                      OFFSET -0.1091 -2.1688 -0.1362
                      CHANNELS 3 Zrotation Xrotation Yrotation
                      End Site
                      {
                        OFFSET -0.2358 -1.9176 -0.0906
                      }
                    }
                  }
                }
                JOINT LeftFinger4
                {
                  OFFSET -0.6151 -8.0947 -3.5641
                  CHANNELS 3 Zrotation Xrotation Yrotation
                  JOINT LeftFinger41
                  {
                    OFFSET -0.4882 -2.341 -0.6462
                    CHANNELS 3 Zrotation Xrotation Yrotation
                    JOINT LeftFinger42
                    {
                      OFFSET -0.3575 -1.7167 -0.4742
                      CHANNELS 3 Zrotation Xrotation Yrotation
                      End Site
                      {
                        OFFSET -0.4187 -1.5237 -0.3496
                      }
                    }
                  }
                }
                JOINT LeftFinger0
                {
                  OFFSET -1.42 -1.8761 1.4223
                  CHANNELS 3 Zrotation Xrotation Yrotation
                  JOINT LeftFinger01
                  {
                    OFFSET -1.1471 -3.4929 2.6334
                    CHANNELS 3 Zrotation Xrotation Yrotation
                    JOINT LeftFinger02
                    {
                      OFFSET -0.823 -2.3 1.6571
                      CHANNELS 3 Zrotation Xrotation Yrotation
                      End Site
                      {
                        OFFSET -0.5822 -1.6914 1.1582
                      }
                    }
                  }
                }
              }
            }
          }
        }
        JOINT RightCollar
        {
          OFFSET -2.2603 21.606 7.4023
          CHANNELS 3 Zrotation Xrotation Yrotation
          JOINT RightShoulder
          {
            OFFSET -13.5187 -1.1334 -5.0155
            CHANNELS 3 Zrotation Xrotation Yrotation
            JOINT RightElbow
            {
              OFFSET 0.0994 -28.0499 -0.2431
              CHANNELS 3 Zrotation Xrotation Yrotation
              JOINT RightWrist
              {
                OFFSET -0.0679 -23.3996 -0.1402
                CHANNELS 3 Zrotation Xrotation Yrotation
                JOINT RightFinger1
                {
                  OFFSET -0.7932 -9.0691 2.5189
                  CHANNELS 3 Zrotation Xrotation Yrotation
                  JOINT RightFinger11
                  {
                    OFFSET 0.8272 -3.3923 0.5977
                    CHANNELS 3 Zrotation Xrotation Yrotation
                    JOINT RightFinger12
                    {
                      OFFSET 0.565 -2.3158 0.4082
                      CHANNELS 3 Zrotation Xrotation Yrotation
                      End Site
                      {
                        OFFSET 0.4919 -1.6479 0.2673
                      }
                    }
                  }
                }
                JOINT RightFinger2
                {
                  OFFSET -0.916 -9.2044 0.2193
                  CHANNELS 3 Zrotation Xrotation Yrotation
                  JOINT RightFinger21
                  {
                    OFFSET -0.0117 -4.1944 -0.0248
                    CHANNELS 3 Zrotation Xrotation Yrotation
                    JOINT RightFinger22
                    {
                      OFFSET -0.0071 -2.3249 -0.0142
                      CHANNELS 3 Zrotation Xrotation Yrotation
                      End Site
                      {
                        OFFSET 0.1475 -2.0882 0.0028
                      }
                    }
                  }
                }
                JOINT RightFinger3
                {
                  OFFSET -0.6113 -8.7231 -2.0637
                  CHANNELS 3 Zrotation Xrotation Yrotation
                  JOINT RightFinger31
                  {
                    OFFSET 0.1927 -3.8059 -0.2383
                    CHANNELS 3 Zrotation Xrotation Yrotation
                    JOINT RightFinger32
                    {
                      OFFSET 0.1091 -2.1688 -0.1362
                      CHANNELS 3 Zrotation Xrotation Yrotation
                      End Site
                      {
                        OFFSET 0.2358 -1.9176 -0.0906
                      }
                    }
                  }
                }
                JOINT RightFinger4
                {
                  OFFSET 0.6151 -8.0947 -3.564
                  CHANNELS 3 Zrotation Xrotation Yrotation
                  JOINT RightFinger41
                  {
                    OFFSET 0.4882 -2.341 -0.6462
                    CHANNELS 3 Zrotation Xrotation Yrotation
                    JOINT RightFinger42
                    {
                      OFFSET 0.3574 -1.7166 -0.4742
                      CHANNELS 3 Zrotation Xrotation Yrotation
                      End Site
                      {
                        OFFSET 0.4187 -1.5237 -0.3496
                      }
                    }
                  }
                }
                JOINT RightFinger0
                {
                  OFFSET 1.4199 -1.8761 1.4221
                  CHANNELS 3 Zrotation Xrotation Yrotation
                  JOINT RightFinger01
                  {
                    OFFSET 1.1472 -3.4929 2.6336
                    CHANNELS 3 Zrotation Xrotation Yrotation
                    JOINT RightFinger02
                    {
                      OFFSET 0.8229 -2.3 1.6571
                      CHANNELS 3 Zrotation Xrotation Yrotation
                      End Site
                      {
                        OFFSET 0.5822 -1.6914 1.1582
                      }
                    }
                  }
                }
              }
            }
          }
        }
      }
    }
  }
  JOINT RightHip
  {
    OFFSET -9.412 3.9771 -0.7758
    CHANNELS 3 Zrotation Xrotation Yrotation
    JOINT RightKnee
    {
      OFFSET -0.7531 -40.938 0
      CHANNELS 3 Zrotation Xrotation Yrotation
      JOINT RightAnkle
      {
        OFFSET 0 -40.1986 0
        CHANNELS 3 Zrotation Xrotation Yrotation
        JOINT RightToe
        {
          OFFSET 0 -4.4182 9.239
          CHANNELS 3 Zrotation Xrotation Yrotation
          End Site
          {
            OFFSET 0 0 6.1981
          }
        }
      }
    }
  }
  JOINT LeftHip
  {
    OFFSET 9.4119 3.9773 -0.7758
    CHANNELS 3 Zrotation Xrotation Yrotation
    JOINT LeftKnee
    {
      OFFSET 0.7532 -40.9383 0
      CHANNELS 3 Zrotation Xrotation Yrotation
      JOINT LeftAnkle
      {
        OFFSET 0 -40.1986 0
        CHANNELS 3 Zrotation Xrotation Yrotation
        JOINT LeftToe
        {
          OFFSET 0 -4.4182 9.239
          CHANNELS 3 Zrotation Xrotation Yrotation
          End Site
          {
            OFFSET 0 0 6.1981
          }
        }
      }
    }
  }
}
MOTION
Frames:	6
Frame Time:	0.0333333
12.5697 -0.153908 20.1435 85.9903 -0.00195586 90.0016 -0.26982 -0.166828 -0.20658 -0.54017 -0.314274 -0.413887 -0.540157 -0.314429 -0.41389 0.000318084 0.000199654 0.000250668 -4.00166 10.0339 -5.5446 -8.00926 -0.0486007 -12.2328 111.522 9.43591 5.60321 -78.4984 -61.6131 -23.6641 -19.227 2.89733 16.9933 -2.46583e-006 -2.2805e-006 -6.59434e-006 -3.67245e-006 -4.79251e-006 2.49468e-008 -1.6777e-006 2.53822e-007 4.17531e-006 -2.46583e-006 -2.2805e-006 -6.59434e-006 -0.0128275 0.00233311 8.72328e-005 -0 -2.71174e-006 -0 -2.46583e-006 -2.2805e-006 -6.59434e-006 -0.0160674 0.00298098 0.000857818 -7.95139e-016 3.97569e-016 -3.18055e-015 -2.46583e-006 -2.2805e-006 -6.59434e-006 -0.0125954 0.00312878 0.00283102 -1.381e-006 4.39285e-007 -8.06448e-007 -2.46583e-006 -2.2805e-006 -6.59434e-006 -3.67245e-006 -4.79251e-006 2.49468e-008 -1.6777e-006 2.53822e-007 4.17531e-006 7.13383 -0.0288544 7.03374 -17.3674 1.29781 1.66126 -13.7387 -37.3238 -20.1572 6.94351 1.26504 0.315191 1.59028e-015 7.15625e-015 3.97569e-016 -3.71044e-031 1.33683e-014 1.59028e-015 -9.72439e-032 7.00716e-015 7.95139e-016 1.59028e-015 7.15625e-015 3.97569e-016 0.0129124 0.00231154 -8.17695e-005 -1.59028e-015 -4.32357e-015 -1.59028e-015 1.59028e-015 7.15625e-015 3.97569e-016 0.0163288 0.00297615 -0.000867208 2.34489e-031 8.44835e-015 -1.59028e-015 1.59028e-015 7.15625e-015 3.97569e-016 0.0145417 0.00357745 -0.00325619 5.11909e-007 8.48353e-006 1.48743e-006 1.59028e-015 7.15625e-015 3.97569e-016 -3.71044e-031 1.33683e-014 1.59028e-015 -9.72439e-032 7.00716e-015 7.95139e-016 -21.575 -5.73194 -3.4807 2.47571 18.8634 -1.30192 -5.45263 22.6274 1.11749 5.34128e-006 1.54261e-006 -2.12666e-006 8.91194 -24.0789 5.52087 -4.30129 61.0786 4.73962 5.45142 3.11606 1.28866 -1.3305e-005 -3.14412e-005 -8.64786e-006 
12.5697 -0.1539 20.1435 85.9767 -0.00195853 90.0016 -0.269807 -0.179196 -0.206648 -0.540165 -0.315347 -0.413898 -0.540151 -0.314707 -0.413888 0.00032458 -4.35211e-005 0.000250805 -4.15866 10.0008 -4.57055 -8.00927 -0.0485252 -12.2328 111.522 9.43598 5.60315 -78.4987 -61.6131 -23.6643 -19.227 2.89734 16.9933 2.28101e-006 -5.53223e-006 -7.48495e-006 -3.18055e-015 -9.14409e-015 1.27222e-014 -1.38117e-006 4.40059e-007 -8.06343e-007 2.28101e-006 -5.53223e-006 -7.48495e-006 -0.0128241 0.00231403 7.26128e-005 -1.38101e-006 -4.5597e-007 -8.064e-007 2.28101e-006 -5.53223e-006 -7.48495e-006 -0.0159834 0.00297704 0.000847632 -1.67742e-006 2.55101e-007 4.17519e-006 2.28101e-006 -5.53223e-006 -7.48495e-006 -0.0125335 0.00310194 0.00280077 -2.96538e-007 -2.00098e-006 4.98158e-006 2.28101e-006 -5.53223e-006 -7.48495e-006 -3.18055e-015 -9.14409e-015 1.27222e-014 -1.38117e-006 4.40059e-007 -8.06343e-007 7.13382 -0.0287568 7.03372 -17.3673 1.29787 1.66125 -13.7391 -37.0092 -20.1207 6.94326 1.26495 0.315215 2.7403e-006 3.33604e-005 8.81162e-006 0 9.44227e-015 -0 -3.72553e-006 2.74251e-005 6.13112e-007 2.7403e-006 3.33604e-005 8.81162e-006 0.012928 0.00224027 -8.99919e-005 -3.96562e-032 5.71506e-015 3.97569e-016 2.7403e-006 3.33604e-005 8.81162e-006 0.0163526 0.00296542 -0.000884775 -1.26618e-005 9.91114e-005 9.77343e-006 2.7403e-006 3.33604e-005 8.81162e-006 0.0145772 0.00358881 -0.00326585 -2.7311e-006 -6.05328e-006 1.99706e-006 2.7403e-006 3.33604e-005 8.81162e-006 0 9.44227e-015 -0 -3.72553e-006 2.74251e-005 6.13112e-007 -21.5754 -5.7445 -3.48569 2.47572 18.8632 -1.30191 -5.45267 22.6275 1.11749 -1.0374e-006 -1.29679e-006 -9.09444e-007 8.91288 -24.0923 5.52315 -4.3013 61.0785 4.73962 5.45142 3.11605 1.28867 -4.78921e-006 3.36305e-008 2.49393e-006 
12.5697 -0.1539 20.1435 85.9767 -0.00195853 90.0016 -0.269807 -0.179196 -0.206648 -0.540165 -0.315347 -0.413898 -0.540151 -0.314707 -0.413888 0.00032458 -4.35211e-005 0.000250805 -4.31523 9.96455 -3.59533 -8.00927 -0.0485252 -12.2328 111.522 9.43598 5.60315 -78.4987 -61.6131 -23.6643 -19.227 2.89734 16.9933 2.28101e-006 -5.53223e-006 -7.48495e-006 -3.18055e-015 -9.14409e-015 1.27222e-014 -1.38117e-006 4.40059e-007 -8.06343e-007 2.28101e-006 -5.53223e-006 -7.48495e-006 -0.0128241 0.00231403 7.26128e-005 -1.38101e-006 -4.5597e-007 -8.064e-007 2.28101e-006 -5.53223e-006 -7.48495e-006 -0.0159834 0.00297704 0.000847632 -1.67742e-006 2.55101e-007 4.17519e-006 2.28101e-006 -5.53223e-006 -7.48495e-006 -0.0125656 0.00311612 0.00281945 -3.07348e-007 -4.99738e-006 -1.67188e-006 2.28101e-006 -5.53223e-006 -7.48495e-006 -3.18055e-015 -9.14409e-015 1.27222e-014 -1.38117e-006 4.40059e-007 -8.06343e-007 7.13382 -0.0287568 7.03372 -17.3674 1.29786 1.66125 -13.7396 -36.6951 -20.0845 6.94295 1.2649 0.315179 9.41403e-032 -4.52235e-015 1.19271e-015 1.59028e-015 -4.37326e-015 7.95139e-016 1.59028e-015 -7.50412e-015 -0 9.41403e-032 -4.52235e-015 1.19271e-015 0.0129483 0.00232377 -9.12266e-005 1.59028e-015 1.31695e-014 -9.93923e-016 9.41403e-032 -4.52235e-015 1.19271e-015 0.0162731 0.00298436 -0.000871709 1.59028e-015 7.30534e-015 -1.78906e-015 9.41403e-032 -4.52235e-015 1.19271e-015 0.0146073 0.00368044 -0.00327445 5.48114e-006 -7.0075e-007 -3.96571e-006 9.41403e-032 -4.52235e-015 1.19271e-015 1.59028e-015 -4.37326e-015 7.95139e-016 1.59028e-015 -7.50412e-015 -0 -21.5755 -5.74437 -3.48567 2.47572 18.8629 -1.30187 -5.45265 22.6275 1.11749 -1.08883e-006 3.86482e-006 1.31519e-006 8.91288 -24.0923 5.52317 -4.30129 61.0784 4.73962 5.45142 3.11612 1.28866 -5.02776e-006 9.1125e-006 9.66128e-006 
12.5697 -0.1539 20.1435 85.9767 -0.00195853 90.0016 -0.269807 -0.179196 -0.206648 -0.540165 -0.315347 -0.413898 -0.540151 -0.314707 -0.413888 0.00032458 -4.35211e-005 0.000250805 -4.47133 9.92569 -2.61911 -8.00927 -0.0485252 -12.2328 111.522 9.43598 5.60315 -78.4987 -61.6131 -23.6643 -19.227 2.89734 16.9933 2.28101e-006 -5.53223e-006 -7.48495e-006 -3.18055e-015 -9.14409e-015 1.27222e-014 -1.38117e-006 4.40059e-007 -8.06343e-007 2.28101e-006 -5.53223e-006 -7.48495e-006 -0.0128241 0.00231403 7.26128e-005 -1.38101e-006 -4.5597e-007 -8.064e-007 2.28101e-006 -5.53223e-006 -7.48495e-006 -0.0159834 0.00297704 0.000847632 -1.67742e-006 2.55101e-007 4.17519e-006 2.28101e-006 -5.53223e-006 -7.48495e-006 -0.0125656 0.00311612 0.00281945 -3.07348e-007 -4.99738e-006 -1.67188e-006 2.28101e-006 -5.53223e-006 -7.48495e-006 -3.18055e-015 -9.14409e-015 1.27222e-014 -1.38117e-006 4.40059e-007 -8.06343e-007 7.13382 -0.0287568 7.03372 -17.3673 1.29788 1.66128 -13.7406 -36.3814 -20.0485 6.94268 1.26486 0.315195 3.45105e-006 2.12836e-005 4.08241e-006 1.44822e-006 -2.14527e-005 2.88925e-006 -1.44822e-006 2.14527e-005 -2.88925e-006 3.45105e-006 2.12836e-005 4.08241e-006 0.0129569 0.00232324 -8.42535e-005 3.7297e-006 -2.29121e-005 -5.74293e-007 3.45105e-006 2.12836e-005 4.08241e-006 0.0163053 0.00302954 -0.000869105 6.75944e-006 -3.98433e-005 -7.19979e-006 3.45105e-006 2.12836e-005 4.08241e-006 0.0146551 0.00373972 -0.00328709 -3.18055e-015 1.13804e-014 1.19271e-015 3.45105e-006 2.12836e-005 4.08241e-006 1.44822e-006 -2.14527e-005 2.88925e-006 -1.44822e-006 2.14527e-005 -2.88925e-006 -21.5754 -5.74421 -3.48562 2.47567 18.8626 -1.30186 -5.45263 22.6276 1.1175 3.43784e-006 -3.80061e-006 -3.86546e-006 8.91288 -24.0923 5.52317 -4.30129 61.0784 4.73962 5.45142 3.11612 1.28866 -5.02776e-006 9.1125e-006 9.66128e-006 
12.5697 -0.1539 20.1435 85.9589 -0.00195324 90.0016 -0.269775 -0.198182 -0.206719 -0.540168 -0.314532 -0.413887 -0.540157 -0.314358 -0.413887 0.000318004 0.000198063 0.000250606 -4.62688 9.88408 -1.64199 -8.00927 -0.0484172 -12.2328 111.523 9.43693 5.60289 -78.5018 -61.6132 -23.6659 -19.227 2.89732 16.9932 3.18055e-015 -3.20372e-006 -0 1.42302e-005 -7.73658e-006 -9.32549e-006 -1.68796e-006 -1.53459e-006 -2.47835e-006 3.18055e-015 -3.20372e-006 -0 -0.0128455 0.00233147 8.28889e-005 -1.98486e-006 3.29937e-006 2.50322e-006 3.18055e-015 -3.20372e-006 -0 -0.0160301 0.00298712 0.000853616 -2.4544e-006 3.31209e-006 5.91348e-008 3.18055e-015 -3.20372e-006 -0 -0.0125476 0.0031039 0.00281087 -1.02493e-005 1.75473e-005 1.09715e-005 3.18055e-015 -3.20372e-006 -0 1.42302e-005 -7.73658e-006 -9.32549e-006 -1.68796e-006 -1.53459e-006 -2.47835e-006 7.13382 -0.0286871 7.03371 -17.3674 1.29787 1.66127 -13.7416 -36.0679 -20.0125 6.9424 1.26482 0.315193 3.18055e-015 -5.26779e-015 -3.97569e-016 4.54124e-007 6.29296e-006 1.49721e-006 4.54552e-006 -3.12025e-005 -5.30842e-006 3.18055e-015 -5.26779e-015 -3.97569e-016 0.0129153 0.00229604 -8.66172e-005 3.73154e-006 -2.30104e-005 -5.54977e-007 3.18055e-015 -5.26779e-015 -3.97569e-016 0.0163518 0.00300072 -0.000874457 -3.18055e-015 8.79622e-015 -3.97569e-016 3.18055e-015 -5.26779e-015 -3.97569e-016 0.0145609 0.00360785 -0.00327022 2.82174e-006 2.11992e-005 -3.549e-006 3.18055e-015 -5.26779e-015 -3.97569e-016 4.54124e-007 6.29296e-006 1.49721e-006 4.54552e-006 -3.12025e-005 -5.30842e-006 -21.5761 -5.7607 -3.49212 2.47572 18.8625 -1.30188 -5.45265 22.6276 1.11749 2.17764e-006 1.79868e-006 -2.63039e-006 8.91409 -24.1097 5.52619 -4.30126 61.0784 4.73959 5.45143 3.11603 1.28865 -7.95139e-016 1.0138e-014 1.59028e-015 
12.5697 -0.1539 20.1435 85.9589 -0.00195324 90.0016 -0.269775 -0.198182 -0.206719 -0.540168 -0.314532 -0.413887 -0.540157 -0.314358 -0.413887 0.000318004 0.000198063 0.000250606 -4.78185 9.83993 -0.664158 -8.00927 -0.0484172 -12.2328 111.523 9.43693 5.60289 -78.5018 -61.6132 -23.6659 -19.227 2.89732 16.9932 3.18055e-015 -3.20372e-006 -0 1.42302e-005 -7.73658e-006 -9.32549e-006 -1.68796e-006 -1.53459e-006 -2.47835e-006 3.18055e-015 -3.20372e-006 -0 -0.0128455 0.00233147 8.28889e-005 -1.98486e-006 3.29937e-006 2.50322e-006 3.18055e-015 -3.20372e-006 -0 -0.0160301 0.00298712 0.000853616 -2.4544e-006 3.31209e-006 5.91348e-008 3.18055e-015 -3.20372e-006 -0 -0.0125476 0.0031039 0.00281087 -1.02493e-005 1.75473e-005 1.09715e-005 3.18055e-015 -3.20372e-006 -0 1.42302e-005 -7.73658e-006 -9.32549e-006 -1.68796e-006 -1.53459e-006 -2.47835e-006 7.13382 -0.0286871 7.03371 -17.3674 1.29785 1.66128 -13.7429 -35.755 -19.9768 6.94211 1.26476 0.315154 -2.81387e-031 -1.35174e-014 -1.19271e-015 1.00224e-005 -8.41231e-005 -7.57088e-006 -4.77083e-015 1.635e-014 1.59028e-015 -2.81387e-031 -1.35174e-014 -1.19271e-015 0.012931 0.00224904 -8.693e-005 3.18055e-015 9.93923e-017 -5.96354e-016 -2.81387e-031 -1.35174e-014 -1.19271e-015 0.0163414 0.00296139 -0.000864995 1.29314e-032 -3.72721e-015 1.98785e-016 -2.81387e-031 -1.35174e-014 -1.19271e-015 0.0145407 0.00358574 -0.00325448 1.59028e-015 -4.27387e-015 -2.5842e-015 -2.81387e-031 -1.35174e-014 -1.19271e-015 1.00224e-005 -8.41231e-005 -7.57088e-006 -4.77083e-015 1.635e-014 1.59028e-015 -21.5761 -5.76059 -3.49207 2.47569 18.8622 -1.30189 -5.45267 22.6276 1.11751 -5.70905e-006 3.4351e-005 -1.11128e-005 8.91409 -24.1097 5.52619 -4.30126 61.0784 4.73959 5.45143 3.11603 1.28865 -7.95139e-016 1.0138e-014 1.59028e-015 
